<svg xmlns="http://www.w3.org/2000/svg" xmlns:xlink="http://www.w3.org/1999/xlink" xml:space="preserve" version="1.1" style="shape-rendering:geometricPrecision;text-rendering:geometricPrecision;image-rendering:optimizeQuality;" viewBox="0 0 60000 75000" x="0px" y="0px" fill-rule="evenodd" clip-rule="evenodd"><defs><style type="text/css">
   
    .fil0 {fill:black;fill-rule:nonzero}
   
  </style></defs><g><path class="fil0" d="M23894 13703c191,139 234,406 95,597 -139,191 -406,234 -597,95 -1743,-1263 -2845,-2799 -3366,-4373 -346,-1045 -435,-2107 -286,-3119 149,-1015 538,-1977 1149,-2820 829,-1144 2064,-2066 3660,-2593 1767,-584 3904,-592 5974,-166 2145,442 4229,1352 5759,2572 856,682 1576,1490 2149,2364 955,1455 1504,3099 1598,4655 95,1585 -282,3084 -1184,4216 -317,398 -697,749 -1143,1041 -799,524 -1635,811 -2454,912 -1079,133 -2128,-59 -3021,-457 -68,-30 -135,-62 -201,-95 817,1364 1639,2815 2403,4262 778,1473 1502,2954 2111,4352 1052,2417 1123,4563 666,6572 -451,1983 -1413,3809 -2448,5627 -410,720 -863,1438 -1317,2158 -1920,3043 -3852,6106 -2176,8975 846,1448 2090,2323 3312,3181 1931,1358 3808,2677 4260,6031 31,234 -133,449 -366,480 -234,31 -449,-133 -480,-366 -402,-2983 -2129,-4197 -3905,-5446 -1298,-913 -2621,-1842 -3559,-3449 -1937,-3315 135,-6599 2193,-9862 448,-711 896,-1421 1297,-2124 1002,-1760 1932,-3522 2357,-5392 420,-1844 353,-3817 -615,-6043 -598,-1374 -1313,-2836 -2084,-4295 -852,-1613 -1763,-3211 -2652,-4675 -361,-595 -680,-1138 -924,-1646 -259,-405 -427,-841 -482,-1287 -6,-48 -4,-95 6,-140 -23,-160 -32,-317 -28,-473 34,-1096 744,-2018 2563,-2929 211,-105 467,-20 572,191 105,211 20,467 -191,572 -1489,746 -2068,1429 -2091,2190 -13,424 133,898 384,1434l6 10c375,571 989,1074 1739,1408 757,337 1649,500 2569,386 695,-86 1406,-330 2089,-778 369,-242 682,-531 942,-857 765,-959 1083,-2252 1000,-3633 -85,-1410 -587,-2906 -1461,-4237 -525,-801 -1184,-1540 -1965,-2163 -1428,-1138 -3381,-1989 -5398,-2405 -1931,-398 -3912,-394 -5535,143 -1417,469 -2509,1279 -3235,2282 -529,730 -866,1563 -995,2442 -130,881 -51,1810 253,2728 467,1412 1466,2798 3054,3948zm2263 -10132c-147,9 -274,-103 -283,-250 -9,-147 103,-274 250,-283 793,-51 1654,-30 2530,83 796,103 1604,282 2381,551 139,48 213,200 165,339 -48,139 -200,213 -339,165 -741,-257 -1512,-428 -2274,-526 -838,-108 -1665,-128 -2430,-79zm7350 52038l1783 0c237,0 428,192 428,428l0 979c0,237 -192,428 -428,428l-1783 0c-237,0 -428,-192 -428,-428l0 -979c0,-237 192,-428 428,-428zm1355 857l-927 0 0 123 927 0 0 -123zm-2944 -3169l1783 0c237,0 428,192 428,428l0 979c0,237 -192,428 -428,428l-1783 0c-237,0 -428,-192 -428,-428l0 -979c0,-237 192,-428 428,-428zm1355 857l-927 0 0 123 927 0 0 -123zm-3200 -3014l1783 0c237,0 428,192 428,428l0 979c0,237 -192,428 -428,428l-1783 0c-237,0 -428,-192 -428,-428l0 -979c0,-237 192,-428 428,-428zm1355 857l-927 0 0 123 927 0 0 -123zm-3200 -3070l1783 0c237,0 428,192 428,428l0 979c0,237 -192,428 -428,428l-1783 0c-237,0 -428,-192 -428,-428l0 -979c0,-237 192,-428 428,-428zm1355 857l-927 0 0 123 927 0 0 -123zm-2490 -3240l1783 0c237,0 428,192 428,428l0 979c0,237 -192,428 -428,428l-1783 0c-237,0 -428,-192 -428,-428l0 -979c0,-237 192,-428 428,-428zm1355 857l-927 0 0 123 927 0 0 -123zm-1906 -3588l1783 0c237,0 428,192 428,428l0 979c0,237 -192,428 -428,428l-1783 0c-237,0 -428,-192 -428,-428l0 -979c0,-237 192,-428 428,-428zm1355 857l-927 0 0 123 927 0 0 -123zm-513 -3599l1559 0c237,0 428,192 428,428l0 883c0,237 -192,428 -428,428l-1559 0c-237,0 -428,-192 -428,-428l0 -883c0,-237 192,-428 428,-428zm1130 857l-702 0 0 26 702 0 0 -26zm187 -3273l1670 0c237,0 428,192 428,428l0 946c0,237 -192,428 -428,428l-1670 0c-237,0 -428,-192 -428,-428l0 -946c0,-237 192,-428 428,-428zm1242 857l-813 0 0 89 813 0 0 -89zm114 -3249l1781 0c237,0 428,192 428,428l0 1009c0,237 -192,428 -428,428l-1781 0c-237,0 -428,-192 -428,-428l0 -1009c0,-237 192,-428 428,-428zm1353 857l-925 0 0 152 925 0 0 -152zm-153 -3340l1893 0c237,0 428,192 428,428l0 1072c0,237 -192,428 -428,428l-1893 0c-237,0 -428,-192 -428,-428l0 -1072c0,-237 192,-428 428,-428zm1464 857l-1036 0 0 215 1036 0 0 -215zm-586 -3486l2004 0c237,0 428,192 428,428l0 1135c0,237 -192,428 -428,428l-2004 0c-237,0 -428,-192 -428,-428l0 -1135c0,-237 192,-428 428,-428zm1576 857l-1147 0 0 278 1147 0 0 -278zm-1264 -3628l2115 0c237,0 428,192 428,428l0 1198c0,237 -192,428 -428,428l-2115 0c-237,0 -428,-192 -428,-428l0 -1198c0,-237 192,-428 428,-428zm1687 857l-1259 0 0 341 1259 0 0 -341zm-2095 -3630l2227 0c237,0 428,192 428,428l0 1261c0,237 -192,428 -428,428l-2227 0c-237,0 -428,-192 -428,-428l0 -1261c0,-237 192,-428 428,-428zm1798 857l-1370 0 0 404 1370 0 0 -404zm-2831 -3467l2338 0c237,0 428,192 428,428l0 1324c0,237 -192,428 -428,428l-2338 0c-237,0 -428,-192 -428,-428l0 -1324c0,-237 192,-428 428,-428zm1910 857l-1481 0 0 467 1481 0 0 -467zm-3360 -3257l2449 0c237,0 428,192 428,428l0 1387c0,237 -192,428 -428,428l-2449 0c-237,0 -428,-192 -428,-428l0 -1387c0,-237 192,-428 428,-428zm2021 857l-1593 0 0 530 1593 0 0 -530zm-3635 -3342l2561 0c237,0 428,192 428,428l0 1450c0,237 -192,428 -428,428l-2561 0c-237,0 -428,-192 -428,-428l0 -1450c0,-237 192,-428 428,-428zm2132 857l-1704 0 0 593 1704 0 0 -593zm-3663 -3421l2672 0c237,0 428,192 428,428l0 1513c0,237 -192,428 -428,428l-2672 0c-237,0 -428,-192 -428,-428l0 -1513c0,-237 192,-428 428,-428zm2244 857l-1815 0 0 657 1815 0 0 -657zm-3422 -3401l2783 0c237,0 428,192 428,428l0 1576c0,237 -192,428 -428,428l-2783 0c-237,0 -428,-192 -428,-428l0 -1576c0,-237 192,-428 428,-428zm2355 857l-1927 0 0 720 1927 0 0 -720zm-2695 -4040l3027 0c237,0 428,192 428,428l0 2096c0,237 -192,428 -428,428l-3027 0c-237,0 -428,-192 -428,-428l0 -2096c0,-237 192,-428 428,-428zm2598 857l-2170 0 0 1239 2170 0 0 -1239z"/></g><text x="0" y="60015" fill="#000000" font-size="5px" font-weight="bold" font-family="'Helvetica Neue', Helvetica, Arial-Unicode, Arial, Sans-serif">Created by Olena Panasovska</text><text x="0" y="60020" fill="#000000" font-size="5px" font-weight="bold" font-family="'Helvetica Neue', Helvetica, Arial-Unicode, Arial, Sans-serif">from the Noun Project</text></svg>