<svg xmlns="http://www.w3.org/2000/svg" xmlns:xlink="http://www.w3.org/1999/xlink" version="1.1" x="0px" y="0px" viewBox="0 0 128 160" style="enable-background:new 0 0 128 128;" xml:space="preserve"><path d="M111.9032898,60.75c-3.6532898,0-7.4208984,2.5059013-10.0751953,5.0615005  c-0.044899,0.0429993-12.8095016,10.6298981-17.1483994,14.9092026C83.8925934,81.4961014,82.3593979,82.125,81.2548904,82.125  c-1.364296,1.5292969-2.9296951,2.8759995-4.6523972,4h4.6523972c2.142601,0,4.7051086-1.0507965,6.2334061-2.5566025  c2.4511948-2.4169998,8.5155945-7.6894989,16.635704-14.4628983c0.3027954-0.2519989,0.4618912-0.3974991,0.4784927-0.4121017  C107.128891,66.2606964,109.926796,64.75,111.9032898,64.75c0.9971008,0,1.8018036,0.3740005,2.6074066,1.2118988  c2.3173981,2.4111023-1.8016968,6.9317017-2.719696,7.8798981L93.1308975,92.357399l-0.0918045,0.0918045l-0.0859985,0.0976944  c-1.3163986,1.4873047-7.9150009,9.2011032-8.5527039,14.993103l-0.0243912,0.2177963v0.2197037V119.5  c0,2.4813995-2.0186081,4.5-4.5,4.5H49.1874962c-2.4813995,0-4.5-2.0186005-4.5-4.5v-11.5224991v-0.2207031l-0.0244026-0.219696  c-0.6484985-5.8563995-7.6967964-13.592804-9.1029968-15.0839996l-0.0699005-0.0742035l-0.0731964-0.0702972  C18.5629997,76.1631012,16.5209999,74.2089996,16.2543964,73.9541016c-2.1895008-2.0967026-3.5317001-4.402298-3.5039005-6.017601  c0.0087996-0.5166016,0.1489-1.3163986,1.2563-2.3066025c0.6119003-0.5468979,1.2070999-0.7910004,1.9287004-0.7910004  c1.8178988,0,4.4687986,1.5068054,7.0908995,4.0302048l0.0727005,0.069397l0.0767002,0.0673981l17.0604973,14.8271027  C41.7895966,85.1826019,44.3114967,86.125,46.3695946,86.125h5.028801c-1.7230988-1.1240005-3.288002-2.4707031-4.6528015-4  h-0.3759995c-1.1044998,0-2.6758003-0.5868988-3.5097008-1.3115005L25.7997952,65.9862976  c-2.6044998-2.5057983-6.289999-5.1464958-9.8642988-5.1473961c-1.5883007,0-3.1547003,0.5223999-4.5947008,1.8094978  c-5.0404992,4.5029984-1.8500996,10.3662033,2.1470003,14.194397c0.0830002,0.0771027,19.1620979,18.3545074,19.1620979,18.3545074  s7.5033989,7.9569931,8.0376015,12.7801971V119.5c0,4.6942978,3.8051987,8.5,8.5,8.5h30.6885033c4.6942978,0,8.5-3.8057022,8.5-8.5  v-11.5224991c0.5311966-4.823204,7.572197-12.7801971,7.572197-12.7801971l18.6875-18.5430069  c3.4121933-3.5097961,6.8339996-9.2235947,2.7597961-13.4638977C115.7157898,61.4443016,113.8251953,60.75,111.9032898,60.75z"/><path d="M64.0004959,85.875c10.5590973,0,19.1255035-8.5644989,19.1255035-19.1230011  c0-10.5634995-8.5664063-19.1269989-19.1255035-19.1269989c-10.5606003,0-19.1259995,8.5634995-19.1259995,19.1269989  C44.8744965,77.3105011,53.4398956,85.875,64.0004959,85.875z M64.0004959,51.625  c8.3403015,0,15.1255035,6.7860985,15.1255035,15.1269989c0,8.3387985-6.785202,15.1230011-15.1255035,15.1230011  s-15.1259995-6.7842026-15.1259995-15.1230011C48.8744965,58.4110985,55.6601944,51.625,64.0004959,51.625z"/><path d="M18,53c5.5228958,0,10-4.4726982,10-10s-4.4771042-10-10-10c-5.5229044,0-10,4.4726982-10,10S12.4770956,53,18,53z M18,37  c3.3085957,0,6,2.6913986,6,6s-2.6914043,6-6,6c-3.3086042,0-6-2.6913986-6-6S14.6913958,37,18,37z"/><path d="M64,20c5.5233917,0,10-4.4727001,10-10S69.5233917,0,64,0c-5.5229034,0-10,4.4727001-10,10S58.4770966,20,64,20z M64,4  c3.3085938,0,6,2.6914001,6,6s-2.6914063,6-6,6c-3.3086052,0-6-2.6913996-6-6S60.6913948,4,64,4z"/><path d="M36.0072937,31c1.8135033,0,3.6490021-0.4932003,5.2998009-1.5272999  c4.6796989-2.9307003,6.0987015-9.0967007,3.1655998-13.7803001C42.5736961,12.6611004,39.320797,11,35.9931946,11  c-1.8134995,0-3.6498985,0.4932003-5.3002987,1.5272999c-4.6797009,2.9307003-6.0991001,9.0967007-3.1655998,13.7803001  C29.4262962,29.3388996,32.6796951,31,36.0072937,31z M30.1532955,19.6562996  c0.3589001-1.5606003,1.3041992-2.8887005,2.6625996-3.7392998C33.7738953,15.3174,34.8730011,15,35.9936943,15  c2.0825005,0,3.9848022,1.0527,5.0888023,2.8153992c1.7558975,2.8037014,0.9037971,6.5117016-1.8989029,8.267601  C38.2255936,26.6826,37.1273956,27,36.0072937,27c-2.0824966,0-3.9852943-1.0527-5.089798-2.8153992  C30.0658951,22.8251991,29.7948952,21.2168007,30.1532955,19.6562996z"/><path d="M86.6903915,28.4717007C88.3417969,29.5067997,90.1776962,30,91.9921951,30  c3.327095,0,6.5791016-1.6602001,8.4785004-4.6903992c2.9356003-4.6826,1.5166016-10.8487005-3.1611023-13.7803011  c-1.6513977-1.0352001-3.4882965-1.5282993-5.302803-1.5282993c-3.327095,0-6.5790939,1.6601-8.4784927,4.6903992  C80.5937958,19.3740005,82.0116959,25.5391006,86.6903915,28.4717007z M86.9179993,16.8153992  c1.1044922-1.7626991,3.0067978-2.8143988,5.089798-2.8143988c1.1200943,0,2.2187958,0.3174,3.1776962,0.9178991  c1.3575058,0.8506002,2.302803,2.1788006,2.6612015,3.7392998c0.3583984,1.5606003,0.0868988,3.1680012-0.7656021,4.5272999  C95.976593,24.9482002,94.0741959,26,91.9921951,26c-1.1201019,0-2.2197037-0.3174-3.1777039-0.9179993  C86.0126953,23.3262005,85.1620941,19.6172009,86.9179993,16.8153992z"/><path d="M110,53c5.5233917,0,10-4.4726982,10-10s-4.4766083-10-10-10c-5.5225067,0-10,4.4726982-10,10S104.4774933,53,110,53z   M110,37c3.3085938,0,6,2.6913986,6,6s-2.6914063,6-6,6c-3.308609,0-6-2.6913986-6-6S106.691391,37,110,37z"/><text x="0" y="143" fill="#000000" font-size="5px" font-weight="bold" font-family="'Helvetica Neue', Helvetica, Arial-Unicode, Arial, Sans-serif">Created by priyanka</text><text x="0" y="148" fill="#000000" font-size="5px" font-weight="bold" font-family="'Helvetica Neue', Helvetica, Arial-Unicode, Arial, Sans-serif">from the Noun Project</text></svg>