<svg xmlns="http://www.w3.org/2000/svg" xmlns:xlink="http://www.w3.org/1999/xlink" version="1.1" x="0px" y="0px" viewBox="0 0 98 122.5" enable-background="new 0 0 98 98" xml:space="preserve"><g><path d="M1.1702,27.6142l4.9097-0.1064l2.9968,3.847l-3.3621,3.1276l0.3149,5.0205l1.9961-0.125l-0.2554-4.0762l2.9575-2.7516   l6.8524,1.4729l0.0124,0.0102c2.1921,1.811,3.5784,4.3327,3.9594,7.1346l-5.7704,3.7281l-6.3843-0.7935l-4.0913,4.272   l1.4443,1.3838l3.397-3.5474l4.8391,0.6014l-0.1657,4.589l3.7729,3.3276l1.3232-1.5l-3.063-2.7017l0.1458-4.0375l5.8867-3.8033   l0.0154-0.0015c2.8096-0.2679,5.6166,0.5555,7.8448,2.2455l-1.4444,6.7164l-5.0752,3.9531l0.1284,5.9141l2-0.0439l-0.1069-4.9092   l3.847-2.9969l3.1281,3.3621l5.0205-0.3149l-0.125-1.9961l-4.0762,0.2554l-2.7521-2.9575l1.4736-6.8533l0.0095-0.0115   c1.5181-1.8374,3.5365-3.1058,5.7982-3.6963c0.1575,1.9564,1.5949,3.5956,3.2728,4.0024c-0.27,1.1719,0.0273,2.2935,0.598,3.21   c1.2975,2.0842,2.8581,1.7664,2.856,2.2104c-0.0111,2.1148,1.7406,4.1906,3.8359,4.4183c0.0109,2.289,2.131,4.2442,4.2889,4.2787   c0.1157,2.1393,2.2446,4.0876,4.6115,3.9651c0.2607,2.3721,2.9189,4.235,5.2457,3.6843c0.5895,1.8208,2.5005,3.2207,4.5547,3.0485   l3.4857,5.6807l-3.2722,6.1946l-5.7088,1.489l0.5049,1.9355l3.9375-1.027l-2.2148,4.193l1.9429,6.978l1.9268-0.5361l-1.729-6.2114   l6.1356-11.6169l3.4948,2.2913l0.6138,5.1382l1.9863-0.2373l-0.7251-6.063l-5.0115-3.2861l-3.4937-5.6945   c0.1467-0.1337,0.2845-0.2772,0.4009-0.4409l6.975,2.629l11.5503-9.2593l6.4336,0.5186l0.1611-1.9932l-7.2256-0.583l-3.6974,2.9641   l0.2657-4.0612l-1.9961-0.1309l-0.3853,5.8881l-4.4061,3.5322l-0.3122-5.1064l-4.0146-2.3306l-1.0039,1.7295l3.0879,1.7925   l0.2704,4.4229l-5.192-1.9567c-0.1905-2.4174-2.8919-4.3463-5.2543-3.7873c-0.5976-1.8462-2.4619-3.0817-4.2455-3.0817   c-0.0702,0-0.1336,0.0179-0.2025,0.0217c-0.2419-2.1165-2.3145-3.7859-4.401-3.7859c-0.0207,0-0.0391,0.0061-0.0596,0.0064   c-0.0693-2.0912-1.8584-3.9477-4.0323-4.1254c0.001-0.0327,0.0103-0.0625,0.0104-0.0954c0.0109-2.0798-1.6766-4.106-3.7066-4.4037   c0.1596-2.0858-1.3391-4.1728-3.291-4.6425c0.5769-2.5437-1.5363-5.2722-3.9682-5.2722c-0.0189,0-0.0363,0.0071-0.0552,0.0075   c0.154-2.1583,0.9284-4.2131,2.2568-5.9598l6.7164,1.444l3.9531,5.0757l5.9146-0.1284l-0.0439-2l-4.9097,0.1069l-2.9969-3.8475   l3.3621-3.1276l-0.3145-5.0205l-1.9961,0.125l0.2549,4.0762l-2.9575,2.7516l-6.8517-1.4727l-0.0126-0.0104   c-2.1924-1.8114-3.5786-4.3329-3.9594-7.1342l5.7704-3.7286l6.3843,0.7935l4.0908-4.2725l-1.4443-1.3828l-3.3965,3.5469   l-4.8391-0.6014l0.1657-4.589l-3.7729-3.3276l-1.3232,1.5l3.063,2.7017L44.3823,17.41l-5.8858,3.8033l-0.0163,0.0015   c-2.817,0.2661-5.6179-0.5562-7.8449-2.2455l1.444-6.7164l5.0752-3.9531l-0.1279-5.9136l-2,0.043l0.1064,4.9097l-3.847,2.9968   l-3.1276-3.3621l-5.0205,0.3149l0.125,1.9961l4.0762-0.2554l2.7516,2.9575l-1.4729,6.8524l-0.0102,0.0124   c-1.8115,2.1926-4.3332,3.5784-7.1347,3.9594l-3.7281-5.7704l0.7935-6.3843l-4.2725-4.0908l-1.3828,1.4443l3.5469,3.3965   l-0.6014,4.839l-4.589-0.1657l-3.3276,3.7729l1.5,1.3232l2.7017-3.063l4.0375,0.1458l3.8033,5.8867l0.0015,0.0154   c0.2695,2.8311-0.5336,5.5945-2.2451,7.845l-6.7168-1.4442l-3.9531-5.0752l-5.9136,0.1279L1.1702,27.6142z M67.6023,65.6005   c0.6962,0.4833,1.3526,1.5209,0.8843,2.1934c-0.4727,0.6797-1.6783,0.4111-2.3643-0.0649c-0.76-0.5289-1.2417-1.2672-0.813-2.2644   C65.8454,64.8745,66.9413,65.1404,67.6023,65.6005z M62.5242,62.6186c0.7607,0.5289,1.2418,1.2688,0.8137,2.2623   c-0.5325,0.5891-1.6279,0.329-2.2942-0.1349c-0.6941-0.4824-1.3527-1.5201-0.8838-2.1934   C60.6233,61.8864,61.8142,62.1243,62.5242,62.6186z M57.9207,58.854c0.8652,0.6021,1.2788,1.6274,0.8848,2.1943   c-0.4628,0.6654-1.6517,0.4294-2.3647-0.0654c-0.8652-0.6021-1.2788-1.6274-0.8848-2.1943   C56.0187,58.1231,57.2076,58.3591,57.9207,58.854z M54.239,57.1953c-0.5407,0.5743-1.6694,0.2087-2.3291-0.4126   c-0.7741-0.7293-1.1099-1.6035-0.298-2.4749c0.6543-0.3057,1.5387,0.0822,2.0753,0.5877   C54.3028,55.4753,54.8016,56.5976,54.239,57.1953z M49.8972,50.6836c0.4554,0.596,0.7365,1.5215,0.3716,2.1277   c-0.9223,0.6697-1.7502,0.3402-2.4327-0.5554c-0.6199-0.8125-0.814-1.6654-0.0289-2.431   C48.5126,49.4807,49.4191,50.0563,49.8972,50.6836z M46.3416,46.1377c0.3856,0.6192,0.588,1.5317,0.1862,2.1218   c-0.0239,0.017-0.0505,0.0293-0.0739,0.0471c-0.8713,0.6646-1.7852,0.0495-2.3135-0.7993   c-0.4467-0.7174-0.6418-1.9316,0.0552-2.3643C44.8704,44.7218,45.8731,45.3848,46.3416,46.1377z M43.1472,40.9673   c0.5571,0.895,0.5313,2-0.0542,2.3647c-0.5049,0.314-1.4907,0.0586-2.1465-0.9946c-0.9509-1.5278,0.5482-2.5866,0.4901-2.4866   c0.0115-0.0004,0.0213-0.0042,0.0329-0.0042C41.9573,39.8466,42.6653,40.1933,43.1472,40.9673z M21.9993,24.769   c2.9375-0.4561,5.5981-1.8672,7.624-4.0435c2.3774,1.7324,5.2969,2.6279,8.2485,2.5322c0.4561,2.9375,1.8667,5.5981,4.043,7.624   c-1.6785,2.295-2.5491,5.0298-2.53,7.8629c-0.1302,0.1404-0.2488,0.291-0.349,0.4548c-2.7992,0.5107-5.3326,1.8852-7.2773,3.9748   c-2.2554-1.6431-4.9927-2.54-7.793-2.54c-0.1519,0-0.3037,0.0029-0.4556,0.0078c-0.4565-2.938-1.8672-5.5986-4.043-7.624   C21.2219,30.6186,22.1052,27.7397,21.9993,24.769z"/><path d="M28.1824,34.9863c1.95,1.6107,5.0547,2.3289,6.6567,0.3911c1.5883-1.9232,0.3545-4.8158-1.6401-6.4639   c-1.95-1.6107-5.0542-2.3289-6.6563-0.3911C24.9528,30.4476,26.1899,33.34,28.1824,34.9863z M28.0847,29.7968   c0.7785-0.9441,2.7485-0.2436,3.8408,0.6587c1.032,0.8529,2.1728,2.6779,1.3716,3.6475c-0.7785,0.9441-2.749,0.2436-3.8413-0.6587   C28.4305,32.597,27.2835,30.7664,28.0847,29.7968z"/><path d="M39.8679,88.8579c3.3193,0,6.02,2.7007,6.02,6.02h2c0-3.3193,2.7007-6.02,6.02-6.02v-2c-3.3193,0-6.02-2.7007-6.02-6.02h-2   c0,3.3193-2.7007,6.02-6.02,6.02V88.8579z M46.8879,84.7133c0.7314,1.3198,1.8247,2.4131,3.1445,3.1445   c-1.3198,0.7314-2.4131,1.8247-3.1445,3.1445c-0.7314-1.3198-1.8247-2.4131-3.1445-3.1445   C45.0632,87.1264,46.1565,86.0332,46.8879,84.7133z"/><path d="M82.8328,42.2011c3.3193,0,6.02,2.7007,6.02,6.02h2c0-3.3193,2.7007-6.02,6.02-6.02v-2c-3.3193,0-6.02-2.7007-6.02-6.02h-2   c0,3.3193-2.7007,6.02-6.02,6.02V42.2011z M89.8528,38.0566c0.7314,1.3198,1.8247,2.4131,3.1445,3.1445   c-1.3198,0.7314-2.4131,1.8247-3.1445,3.1445c-0.7314-1.3198-1.8247-2.4131-3.1445-3.1445   C88.0281,40.4697,89.1213,39.3764,89.8528,38.0566z"/><path d="M79.0828,14.0058v-2.0005c-3.3193,0-6.02-2.7002-6.02-6.0195h-2c0,3.2998-2.6694,5.9883-5.9624,6.0195   c-0.019,0-0.0381,0-0.0576,0v2.0005c3.3193,0,6.02,2.7002,6.02,6.0195h2c0-3.2998,2.6694-5.9883,5.9624-6.0195   C79.0442,14.0058,79.0632,14.0058,79.0828,14.0058z M72.0627,16.1504c-0.7319-1.3203-1.8247-2.4131-3.145-3.145   c1.3203-0.7314,2.4136-1.8247,3.145-3.1445c0.7319,1.3203,1.8247,2.4131,3.145,3.145   C73.8875,13.7373,72.7942,14.8305,72.0627,16.1504z"/><path d="M21.0134,71.4038v-2.0005c-3.3193,0-6.02-2.7002-6.02-6.0195h-2c0,3.2998-2.6694,5.9883-5.9624,6.0195   c-0.019,0-0.0381,0-0.0576,0v2.0005c3.3193,0,6.02,2.7002,6.02,6.0195h2c0-3.2998,2.6694-5.9883,5.9624-6.0195   C20.9749,71.4038,20.9939,71.4038,21.0134,71.4038z M13.9934,73.5483c-0.7319-1.3203-1.8247-2.4131-3.145-3.145   c1.3203-0.7314,2.4136-1.8247,3.145-3.1445c0.7319,1.3203,1.8247,2.4131,3.145,3.145   C15.8181,71.1352,14.7249,72.2285,13.9934,73.5483z"/><rect x="32.408" y="72.4438" width="2" height="2"/><rect x="36.408" y="72.4438" width="2" height="2"/><rect x="44.408" y="72.4438" width="2" height="2"/><rect x="40.408" y="72.4438" width="2" height="2"/><rect x="84.2063" y="20.1943" width="2" height="2"/><rect x="80.2063" y="20.1943" width="2" height="2"/><rect x="88.2063" y="20.1943" width="2" height="2"/><rect x="92.2063" y="20.1943" width="2" height="2"/><rect x="65.3381" y="41.5502" width="2" height="2"/><rect x="69.3381" y="41.5502" width="2" height="2"/><rect x="73.3381" y="41.5502" width="2" height="2"/><rect x="61.3381" y="41.5502" width="2" height="2"/><rect x="21.1858" y="87.5796" width="2" height="2"/><rect x="9.1858" y="87.5796" width="2" height="2"/><rect x="13.1858" y="87.5796" width="2" height="2"/><rect x="17.1858" y="87.5796" width="2" height="2"/></g><text x="0" y="113" fill="#000000" font-size="5px" font-weight="bold" font-family="'Helvetica Neue', Helvetica, Arial-Unicode, Arial, Sans-serif">Created by ProSymbols</text><text x="0" y="118" fill="#000000" font-size="5px" font-weight="bold" font-family="'Helvetica Neue', Helvetica, Arial-Unicode, Arial, Sans-serif">from the Noun Project</text></svg>