<svg xmlns="http://www.w3.org/2000/svg" xmlns:xlink="http://www.w3.org/1999/xlink" version="1.1" x="0px" y="0px" viewBox="0 0 64 80" style="enable-background:new 0 0 64 64;" xml:space="preserve"><g><path d="M25.316,14.869l-0.029-0.058C23.963,14.364,23,13.124,23,11.65c0-0.606,0.165-1.202,0.478-1.723l0.092-0.153   C25.337,6.829,28.567,5,32,5s6.663,1.829,8.43,4.772l0.094,0.157C40.835,10.448,41,11.044,41,11.65   c0,1.473-0.963,2.714-2.287,3.161l-0.029,0.058c-0.801,1.603-2.113,2.821-3.684,3.507v10.502c0.703-0.154,1.371-0.456,1.937-0.908   c2.083-1.667,3.555-3.908,4.257-6.48l1.438-5.271C42.876,15.321,43,14.395,43,13.465C43,7.694,38.306,3,32.535,3h-1.07   C25.694,3,21,7.694,21,13.465c0,0.93,0.124,1.856,0.369,2.754l1.438,5.271c0.702,2.572,2.174,4.813,4.257,6.48   c0.566,0.453,1.234,0.754,1.937,0.908V18.376C27.429,17.69,26.118,16.472,25.316,14.869z"/><path d="M15.684,54.324c-0.328-0.219-0.63-0.47-0.915-0.737L14.095,61h2.772l-0.746-5.968   C16.085,54.743,15.926,54.485,15.684,54.324z"/><polygon points="7.09,61 12.087,61 12.367,57.917 7.705,53.921  "/><polygon points="3.456,56.341 5.561,55.498 6.086,49.443 3.939,50.302  "/><path d="M10.454,35.756c1.395-1.115,3.063-1.847,4.825-2.118l4.557-0.701c2.324-0.357,4.338-1.826,5.421-3.887   c-0.36-0.319-0.706-0.649-1.03-0.998c-1.074,1.881-2.95,3.224-5.15,3.563l-5.854,0.9c-1.83,0.282-3.549,1.058-4.97,2.242   c-2.091,1.742-3.414,4.297-3.631,7.01l-0.505,6.309l2.163-0.865l0.379-4.365C6.898,40.079,8.282,37.494,10.454,35.756z"/><polygon points="3.083,61 5.083,61 5.367,57.731 3.278,58.567  "/><path d="M32,17c1.667,0,3.191-0.75,4.216-2h-8.432C28.809,16.25,30.333,17,32,17z"/><path d="M20.14,34.913L17,35.396V41h-2v-5.256c-1.199,0.275-2.332,0.802-3.297,1.574c-1.747,1.398-2.859,3.477-3.052,5.7   L7.918,51.47l4.671,4.004l0.406-4.468c-0.193-0.479-0.338-0.979-0.424-1.495l-1.558-9.347l1.973-0.328l1.558,9.347   c0.236,1.414,1.056,2.682,2.249,3.478c0.726,0.483,1.205,1.258,1.313,2.124L18.883,61H29v-4h-6v-2h6v-4h-6.171   c-0.267,0-0.519,0.104-0.708,0.293l-1.414,1.414l-1.414-1.414l1.414-1.414C21.273,49.313,22.027,49,22.829,49H29v-4h-6v-2h6v-4   h-6.171c-0.267,0-0.519,0.104-0.708,0.293l-1.414,1.414l-1.414-1.414l1.414-1.414C21.273,37.313,22.027,37,22.829,37H29v-6.085   c-0.733-0.111-1.44-0.345-2.097-0.687C25.499,32.715,22.999,34.473,20.14,34.913z"/><path d="M39,11.65c0-0.244-0.066-0.483-0.192-0.693L38.714,10.8C37.308,8.457,34.735,7,32,7s-5.308,1.457-6.715,3.802l-0.092,0.153   C25.066,11.167,25,11.406,25,11.65c0,0.744,0.605,1.35,1.349,1.35h11.302C38.395,13,39,12.395,39,11.65z"/><path d="M51.633,57.917L51.913,61h4.996c-0.123-1.419-0.355-4.082-0.615-7.079L51.633,57.917z"/><path d="M59.378,41.768c-0.217-2.713-1.541-5.268-3.631-7.01c-1.421-1.185-3.14-1.96-4.971-2.242l-5.853-0.9   c-2.2-0.339-4.077-1.682-5.15-3.563c-0.324,0.349-0.67,0.679-1.03,0.998c1.084,2.06,3.098,3.529,5.422,3.886l4.556,0.701   c1.762,0.271,3.43,1.003,4.824,2.117c2.175,1.741,3.559,4.326,3.797,7.094c0.11,1.275,0.24,2.775,0.378,4.362l2.164,0.865   L59.378,41.768z"/><path d="M60.722,58.567l-2.09-0.836c0.121,1.388,0.22,2.531,0.284,3.27h2L60.722,58.567z"/><path d="M60.061,50.302l-2.148-0.859c0.179,2.066,0.362,4.174,0.526,6.055l2.106,0.842L60.061,50.302z"/><path d="M55.35,43.021c-0.192-2.225-1.305-4.304-3.054-5.704c-0.964-0.771-2.097-1.297-3.296-1.573V41h-2v-5.604l-3.14-0.483   c-2.859-0.44-5.359-2.198-6.764-4.685C36.44,30.57,35.733,30.803,35,30.915V37h6.171c0.801,0,1.555,0.313,2.122,0.879l1.414,1.414   l-1.414,1.414l-1.414-1.414C41.69,39.104,41.438,39,41.171,39H35v4h6v2h-6v4h6.171c0.801,0,1.555,0.313,2.122,0.879l1.414,1.414   l-1.414,1.414l-1.414-1.414C41.69,51.104,41.438,51,41.171,51H35v4h6v2h-6v4h10.117l0.777-6.216   c0.108-0.866,0.587-1.641,1.313-2.124c1.193-0.796,2.013-2.063,2.249-3.478l1.558-9.347l1.973,0.328l-1.558,9.347   c-0.086,0.516-0.231,1.016-0.424,1.495l0.406,4.468l4.671-4.004C55.82,48.456,55.552,45.362,55.35,43.021z"/><path d="M31,18.931V61h2V18.931C32.672,18.974,32.338,19,32,19S31.328,18.974,31,18.931z"/><path d="M48.316,54.324c-0.242,0.161-0.402,0.419-0.438,0.708L47.133,61h2.772l-0.674-7.412   C48.946,53.855,48.645,54.106,48.316,54.324z"/></g><text x="0" y="79" fill="#000000" font-size="5px" font-weight="bold" font-family="'Helvetica Neue', Helvetica, Arial-Unicode, Arial, Sans-serif">Created by Eucalyp</text><text x="0" y="84" fill="#000000" font-size="5px" font-weight="bold" font-family="'Helvetica Neue', Helvetica, Arial-Unicode, Arial, Sans-serif">from the Noun Project</text></svg>