<svg xmlns="http://www.w3.org/2000/svg" xmlns:xlink="http://www.w3.org/1999/xlink" version="1.1" x="0px" y="0px" viewBox="0 0 100 125" style="enable-background:new 0 0 100 100;" xml:space="preserve"><path d="M47.37,37.38c-2.63-1.52-3.53-4.89-2.01-7.51s4.89-3.53,7.51-2.01c2.63,1.52,3.53,4.89,2.01,7.51  C53.36,38,49.99,38.9,47.37,37.38z M51.87,29.59c-1.67-0.96-3.82-0.39-4.78,1.28c-0.96,1.67-0.39,3.82,1.28,4.78  c1.67,0.96,3.82,0.39,4.78-1.28S53.54,30.55,51.87,29.59z"/><g><ellipse transform="matrix(0.4999 -0.8661 0.8661 0.4999 -27.7208 64.1362)" cx="41.68" cy="56.07" rx="3.5" ry="1.5"/><ellipse transform="matrix(0.4999 -0.8661 0.8661 0.4999 -27.7202 68.1366)" cx="45.14" cy="58.07" rx="3.5" ry="1.5"/></g><g><circle cx="52.36" cy="32.76" r="0.75"/><circle cx="48.44" cy="31.02" r="0.75"/><circle cx="48.59" cy="33.44" r="0.75"/><circle cx="50.71" cy="34.67" r="0.75"/><circle cx="50.77" cy="31.25" r="0.75"/></g><g><path d="M55.89,58.45c-0.8-0.2-1.83,1.17-2.29,3.04c-0.46,1.88-0.18,3.56,0.63,3.76c0.8,0.2,1.83-1.17,2.29-3.04   C56.98,60.33,56.7,58.64,55.89,58.45z"/><path d="M60.4,63.15c0.46-1.88,0.18-3.56-0.63-3.76c-0.8-0.2-1.83,1.17-2.29,3.04c-0.46,1.88-0.18,3.56,0.63,3.76   C58.92,66.39,59.95,65.03,60.4,63.15z"/></g><g><path d="M36.25,46.48c-0.58-0.59-2.17,0.03-3.55,1.39c-1.38,1.36-2.02,2.93-1.44,3.52c0.58,0.59,2.17-0.03,3.55-1.39   C36.18,48.64,36.83,47.07,36.25,46.48z"/><path d="M39.05,49.33c-0.58-0.59-2.17,0.03-3.55,1.39c-1.38,1.36-2.02,2.93-1.44,3.52c0.58,0.59,2.17-0.03,3.55-1.39   C38.99,51.5,39.63,49.92,39.05,49.33z"/></g><g><circle cx="62.68" cy="49.55" r="0.75"/><circle cx="59.29" cy="50.75" r="0.75"/><circle cx="45.42" cy="53.34" r="0.75"/><circle cx="61.38" cy="52.95" r="0.75"/><circle cx="60.63" cy="48.08" r="0.75"/><circle cx="63.32" cy="58.63" r="0.75"/><circle cx="59.29" cy="57.13" r="0.75"/><path d="M54.61,54.39c-0.39-0.14-0.82,0.07-0.95,0.46c-0.14,0.39,0.07,0.82,0.46,0.95c0.39,0.14,0.82-0.07,0.95-0.46   C55.21,54.95,55,54.52,54.61,54.39z"/><path d="M58.38,53.64c-0.39-0.14-0.82,0.07-0.95,0.46c-0.14,0.39,0.07,0.82,0.46,0.95c0.39,0.14,0.82-0.07,0.95-0.46   S58.77,53.77,58.38,53.64z"/><path d="M66.16,55.52c-0.39-0.14-0.82,0.07-0.95,0.46c-0.14,0.39,0.07,0.82,0.46,0.95c0.39,0.14,0.82-0.07,0.95-0.46   C66.76,56.08,66.55,55.65,66.16,55.52z"/><path d="M44.91,47.85c-0.39-0.14-0.82,0.07-0.95,0.46s0.07,0.82,0.46,0.95c0.39,0.14,0.82-0.07,0.95-0.46   C45.51,48.41,45.31,47.99,44.91,47.85z"/><circle cx="62.68" cy="55.84" r="0.75"/><circle cx="51.61" cy="52.07" r="0.75"/><circle cx="42.76" cy="50.18" r="0.75"/></g><path d="M73.76,70.86c-1.17-3.82-5.53-4.44-11.05-5.23c-5.65-0.8-12.71-1.83-20.12-6.14c-6.78-3.95-10.96-8.95-14.31-12.96  c-3.6-4.3-6.2-7.41-9.92-6.47c-4.33,1.09-6.33,7.15-7.24,12.05c-1.28,6.87,0.86,11.9,2.93,16.76c1.59,3.73,3.1,7.29,3.05,11.57  l1.96,1.13c0.35-5.22-1.43-9.41-3.17-13.48c-2.04-4.8-3.97-9.33-2.81-15.61c1.12-6.02,3.22-9.84,5.76-10.47  c2.4-0.6,4.35,1.58,7.9,5.82c3.28,3.92,7.76,9.28,14.84,13.41c0.05,0.03,0.11,0.06,0.16,0.1c7.72,4.46,15.2,5.52,20.68,6.3  c5.67,0.81,8.66,1.35,9.42,3.83c1.19,3.91-4.17,9.51-7.17,11.92c-4.97,3.99-9.73,4.52-14.77,5.08c-4.17,0.46-8.47,0.95-12.82,3.51  l2.04,1.18c3.63-1.86,7.23-2.29,11-2.7c5.1-0.57,10.38-1.15,15.8-5.51C66.93,84.12,75.61,76.93,73.76,70.86z"/><path d="M79.45,38.59c-1.05-4.2-2.35-9.43-1.08-16.02c0.66-3.43,1.94-6.76,3.78-9.95l-1.73-1c-1.96,3.39-3.31,6.92-4.01,10.58  c-1.36,7.03,0.01,12.49,1.1,16.89c1,4.01,1.72,6.9-0.03,9.18c-1.83,2.37-5.82,3.43-11.08,2.98c0.58-1.63,0.36-3.47-0.65-4.94  c-0.84-1.21-2.09-2.02-3.54-2.28c-1.44-0.26-2.91,0.05-4.11,0.89c-1.29,0.89-2.11,2.26-2.31,3.77c-1.75-0.69-3.4-1.47-4.91-2.35  c-11.03-6.37-17.11-17.09-14.98-22.07c1.12-2.62,4.06-3.34,8.13-4.34c4.57-1.12,10.25-2.52,15.84-7.28  c2.83-2.41,5.23-5.35,7.18-8.76l-1.73-1c-1.84,3.21-4.09,5.97-6.75,8.23c-5.23,4.45-10.66,5.79-15.02,6.86  c-4.28,1.05-7.98,1.96-9.49,5.5c-3.03,7.09,5.85,18.83,15.82,24.58c2,1.15,4.21,2.16,6.59,3l1.58,0.56l-0.26-1.65  c-0.21-1.34,0.35-2.65,1.45-3.42c1.59-1.1,3.77-0.7,4.87,0.89c0.84,1.22,0.81,2.84-0.07,4.05l-1,1.36l1.67,0.22  c6.79,0.89,11.89-0.38,14.36-3.59C81.4,46.44,80.49,42.8,79.45,38.59z"/><text x="0" y="115" fill="#000000" font-size="5px" font-weight="bold" font-family="'Helvetica Neue', Helvetica, Arial-Unicode, Arial, Sans-serif">Created by Léa Lortal</text><text x="0" y="120" fill="#000000" font-size="5px" font-weight="bold" font-family="'Helvetica Neue', Helvetica, Arial-Unicode, Arial, Sans-serif">from the Noun Project</text></svg>